<svg xmlns="http://www.w3.org/2000/svg" height="1024" preserveAspectRatio="none" style="display: block;" version="1.1" viewBox="0 0 2048 2048" width="1024">
<path d="M 0 0 L 2048 0 L 2048 2048 L 0 2048 L 0 0 z" fill="rgb(254,254,254)" transform="translate(0,0)"></path>
<path d="M 380.238 414.838 C 385.322 420.297 417.973 476.316 423.484 485.434 C 471.094 564.201 517.961 642.734 560.258 724.534 L 1855.98 723.992 C 1893 770.553 1920.64 845.215 1929.7 903.36 C 1944.04 996.167 1921.02 1090.88 1865.68 1166.74 C 1859.29 1175.44 1836.68 1206.55 1827.78 1207.93 C 1823.59 1206.89 1824.61 1207.72 1821.78 1205.04 C 1821.21 1202.39 1821.46 1199.67 1823.12 1197.53 C 1832.6 1185.33 1843.3 1174.14 1852.46 1161.56 C 1891.19 1109.1 1914.13 1046.67 1918.59 981.612 C 1923.16 913.112 1907.36 846.38 1876.61 785.358 C 1869.28 770.804 1858.46 750.733 1847.67 739.028 C 1804.35 737.737 1754.22 739.031 1710.16 739 L 1395.79 739.293 L 568.13 739.602 C 572.872 751.406 580.035 763.387 585.698 774.901 C 620.848 846.365 656.632 918.113 686.204 992.085 C 693.451 1010.21 706.485 1040.29 708.41 1058.89 C 711.798 1091.62 704.729 1133.8 697.241 1165.47 C 683.991 1210.5 669.091 1241.39 641.815 1279.51 L 1819.03 1273.21 L 1818.66 1287.03 C 1738.59 1286.7 1657.48 1288.31 1577.3 1288.81 L 1071.04 1292.02 L 778.753 1293.16 C 730.644 1293.37 677.676 1292.83 629.871 1294.41 C 555.784 1380.95 448.852 1421.59 336.123 1408.41 C 316.976 1448.82 295.905 1488.69 275.746 1528.62 C 272.182 1535.68 267.327 1550.26 259.01 1551.56 C 255.859 1550.76 255.852 1550.27 253.748 1547.81 C 252.163 1541.19 263.184 1505.37 265.605 1496.18 L 290.722 1400 C 256.794 1388.74 231.893 1379.2 201.304 1359.63 C 124.03 1309.59 69.8823 1230.82 50.8427 1140.76 C 47.4611 1125.27 39.1315 1077.36 42.9645 1063.93 C 49.4037 1041.37 64.1298 1003.31 73.5282 981.562 C 121.744 870.001 180.85 759.529 240.18 653.537 C 269.819 600.209 300.308 547.358 331.635 495.004 C 347.387 468.527 363.619 440.702 380.238 414.838 z" fill="rgb(0,0,0)" transform="translate(0,0)"></path>
<path d="M 379.157 442.519 C 388.946 451.311 466.635 584.904 474.294 600.425 C 455.234 643.536 433.332 688.377 413.048 731.006 L 308.815 948.242 C 294.247 978.388 273.658 1017.49 260.099 1048.81 C 258.831 1051.74 261.076 1056.08 262.749 1058.86 C 268.975 1063.99 300.094 1062.33 309.235 1062.3 L 380.433 1062 L 294.479 1386.09 C 288.973 1384.62 283.243 1382.67 277.788 1380.93 C 261.203 1375.27 245.143 1368.16 229.791 1359.71 C 148.114 1314.35 95.5636 1246.61 69.2544 1156.93 C 64.2001 1139.7 53.4972 1085.95 56.8431 1068.98 C 60.7195 1049.33 77.1895 1011.08 85.2655 991.423 C 113.449 922.819 148.543 854.105 183.138 788.475 C 221.742 715.385 261.744 643.041 303.121 571.485 C 328.014 528.685 355.109 485.511 379.157 442.519 z" fill="rgb(254,254,254)" transform="translate(0,0)"></path>
<path d="M 112.928 1006.82 C 116.979 1007.09 125.778 1009.57 123.302 1014.69 C 105.42 1051.72 98.1378 1087.08 107.94 1127.78 C 110.74 1139.4 118.093 1143.98 110.426 1154.96 C 100.695 1155.09 99.6427 1145.57 97.1945 1137.85 C 83.1333 1093.55 90.456 1047.05 112.928 1006.82 z" fill="rgb(0,0,0)" transform="translate(0,0)"></path>
<path d="M 123.367 1183.57 C 127.975 1183.48 131.844 1187.02 132.142 1191.62 C 132.44 1196.22 129.063 1200.24 124.481 1200.74 C 121.334 1201.08 118.254 1199.67 116.459 1197.06 C 114.664 1194.46 114.445 1191.07 115.888 1188.26 C 117.331 1185.44 120.203 1183.64 123.367 1183.57 z" fill="rgb(0,0,0)" transform="translate(0,0)"></path>
<path d="M 496.659 637.807 C 499.45 640.741 517.668 675.45 520.891 681.438 C 570.649 773.925 616.7 868.359 658.935 964.514 C 671.299 992.902 687.065 1029.18 694.027 1059.48 C 695.839 1072.7 694.61 1087.46 693.544 1100.58 C 681.011 1254.86 570.455 1370.67 418.726 1394.33 C 389.064 1398.05 372.432 1396.66 343.128 1394.24 C 362.819 1348.51 520.391 1026.12 519.845 1017.33 C 519.724 1015.38 518.029 1012.15 516.604 1010.95 C 509.943 1005.33 415.77 1007.99 398.953 1007.91 C 401.524 995.685 406.368 979.627 409.667 967.306 C 415.616 945.052 421.397 922.753 427.008 900.411 C 449.134 812.591 472.353 725.049 496.659 637.807 z" fill="rgb(254,254,254)" transform="translate(0,0)"></path>
<path d="M 632.695 1180.98 C 637.516 1180.83 639.294 1180.31 642.885 1183.98 C 644.804 1189.68 641.079 1195.74 638.453 1201.17 C 610.931 1257.83 566.028 1304.21 510.292 1333.55 C 492.619 1342.77 475.756 1349.01 457.053 1355.45 C 451.27 1356.06 448.817 1354.78 446.32 1349.48 C 446.568 1347.57 446.786 1345.65 448.947 1344.56 C 461.442 1338.24 476.75 1333.85 489.737 1328.03 C 541.415 1304.28 584.798 1265.6 614.299 1216.97 C 621.45 1205.24 626.095 1192.88 632.695 1180.98 z" fill="rgb(0,0,0)" transform="translate(0,0)"></path>
<path d="M 647.718 1137.66 C 652.475 1136.33 657.405 1139.12 658.718 1143.88 C 660.031 1148.64 657.228 1153.57 652.464 1154.87 C 647.719 1156.16 642.82 1153.37 641.512 1148.63 C 640.204 1143.89 642.98 1138.98 647.718 1137.66 z" fill="rgb(0,0,0)" transform="translate(0,0)"></path>
<path d="M 1863.85 639.924 L 1866.46 640.014 C 1879.09 646.488 1919.1 701.77 1928.26 716.132 C 2034.03 881.808 2015.16 1103.02 1876.29 1243.78 C 1868.05 1252.14 1855.22 1267.21 1845.2 1272.39 C 1831.21 1253.24 1828.97 1247.22 1828.96 1223.12 C 1891.63 1165.73 1933.23 1088.96 1947.07 1005.11 C 1961.71 919.648 1935.51 816.486 1886.82 745.221 C 1869.68 720.145 1848.63 698.894 1831.94 675.252 C 1832.34 673.94 1832.77 672.634 1833.23 671.337 C 1838.86 655.431 1849.47 646.941 1863.85 639.924 z" fill="rgb(0,0,0)" transform="translate(0,0)"></path>
<path d="M 1079.69 796.183 L 1235.99 796.131 L 1231.43 820.01 L 1102.13 819.786 C 1097.19 844.953 1091.91 870.049 1086.28 895.069 C 1124.17 895.486 1162.94 895.02 1200.91 894.981 C 1199.2 902.896 1197.62 910.837 1196.16 918.801 L 1118.96 918.628 C 1110.82 918.622 1089.25 918.02 1082.28 919.107 C 1080.39 921.333 1080.25 924.859 1079.74 927.924 C 1078.41 944.31 1069.43 977.578 1066.4 996.18 L 1197.64 996.249 C 1195.81 1004.08 1194.03 1011.92 1192.32 1019.78 C 1139.17 1018.91 1086.02 1018.61 1032.87 1018.87 C 1047.9 944.836 1065.25 870.173 1079.69 796.183 z" fill="rgb(0,0,0)" transform="translate(0,0)"></path>
<path d="M 1464.68 796.037 L 1493.26 795.965 L 1489.07 814.339 C 1482.98 841.358 1478.18 869.605 1472.2 897.173 C 1463.01 939.485 1459.49 979.849 1420.89 1007.51 C 1397.59 1023.51 1366.49 1026.95 1339.3 1022.22 C 1304.86 1016.24 1284.88 990.875 1285.05 956.392 C 1285.19 928.87 1292.65 902.91 1297.78 876.056 C 1302.88 849.356 1307.98 822.696 1313.62 796.148 L 1341.7 796.044 C 1331.84 842.319 1322.86 889.475 1313.97 935.994 C 1309.07 963.124 1316.1 992.996 1347.23 998.787 C 1429.4 1014.07 1435.79 936.276 1447.15 879.786 L 1464.68 796.037 z" fill="rgb(0,0,0)" transform="translate(0,0)"></path>
<path d="M 829.39 796.183 L 1001.05 796.123 C 998.853 804.253 997.75 809.49 996.387 817.818 C 983.51 832.603 964.461 850.996 950.333 865.755 C 908.148 909.111 866.289 952.783 824.759 996.767 C 840.195 995.702 860.644 996.214 876.221 996.202 L 963.611 996.175 C 962.825 1002.93 960.664 1012.11 959.244 1018.98 C 941.263 1020.12 915.774 1019.35 897.266 1019.29 L 785.847 1018.89 C 787.235 1013.09 789.537 1001.31 793.011 997.02 C 804.84 982.398 819.825 968.882 832.888 954.925 L 927.264 855.327 C 938.594 843.454 950.288 832.088 961.415 820.009 L 824.398 819.846 C 826.393 811.647 828.178 804.574 829.39 796.183 z" fill="rgb(0,0,0)" transform="translate(0,0)"></path>
<path d="M 1635.54 793.418 C 1637.85 793.241 1640.18 793.137 1642.5 793.105 C 1674.47 792.715 1695.76 800.126 1718.63 822.362 C 1712.53 830.078 1708.24 837.022 1703.25 845.445 C 1685.59 822.641 1669.95 818.484 1642.33 816.172 C 1617.12 814.063 1587.32 832.245 1586.19 858.31 C 1585.02 884.937 1636.59 895.716 1654.71 904.606 C 1677.22 915.424 1698.12 927.96 1698.09 955.06 C 1697.98 972.694 1690.86 989.561 1678.31 1001.94 C 1658.25 1021.56 1629.29 1025.29 1602.57 1024.92 C 1569.87 1022.21 1542.28 1015.59 1522.38 987.191 C 1528.11 980.812 1533.91 974.498 1539.77 968.25 C 1561.06 995.871 1587.78 1004.17 1622.06 1001.63 C 1637.22 1000.51 1651.63 995.064 1661.32 982.827 C 1667.53 974.919 1670.28 964.846 1668.96 954.883 C 1666 930.988 1625.78 920.696 1604.58 913.712 C 1558.93 898.679 1543.3 859.575 1573.64 820.432 C 1588.05 801.844 1611.55 795.114 1635.54 793.418 z" fill="rgb(0,0,0)" transform="translate(0,0)"></path>
<path d="M 833.389 1065.16 C 863.859 1066.36 926.756 1056.49 927.948 1102.51 C 928.365 1114.94 923.591 1126.98 914.771 1135.74 C 899.562 1150.85 879.167 1153.02 858.987 1152.68 C 849.273 1152.24 839.066 1152.25 829.308 1152.11 C 825.868 1166.61 823.442 1179.55 819.291 1194.01 L 804.718 1193.96 C 814.79 1152.27 823.888 1107.36 833.389 1065.16 z" fill="rgb(0,0,0)" transform="translate(0,0)"></path>
<path d="M 845.575 1078.81 C 858.231 1078.8 877.569 1077.47 889.357 1079.85 C 920.588 1086.13 917.181 1120.12 893.261 1134.93 C 874.16 1142.55 851.845 1140.2 831.075 1139.92 C 836.586 1119.14 840.875 1099.74 845.575 1078.81 z" fill="rgb(254,254,254)" transform="translate(0,0)"></path>
<path d="M 1547.14 1065.13 C 1550.97 1065.14 1554.62 1065.57 1558.42 1065.94 C 1570.86 1108.33 1581.98 1151.09 1591.77 1194.16 L 1576.55 1194.45 C 1574.21 1183.53 1572.15 1173.5 1568.96 1162.77 C 1546.3 1163.14 1522.49 1162.73 1499.75 1162.68 C 1492.08 1162.56 1478.49 1186.91 1473.48 1194.27 L 1456.26 1194.27 C 1466.27 1179.1 1478.25 1163.42 1488.67 1148.25 C 1507.87 1120.29 1527.01 1092.43 1547.14 1065.13 z" fill="rgb(0,0,0)" transform="translate(0,0)"></path>
<path d="M 1548.48 1083.7 C 1550.35 1085.53 1564.24 1142.8 1566.19 1150.32 L 1522.07 1150.41 L 1503.46 1150.11 C 1518.01 1127.78 1533.68 1106.92 1548.48 1083.7 z" fill="rgb(254,254,254)" transform="translate(0,0)"></path>
<path d="M 1441.45 1065.07 L 1455.58 1065.3 C 1454.8 1071.68 1453.47 1079.37 1452.06 1085.67 C 1443.98 1121.7 1438.51 1158.92 1430.19 1194.83 L 1419.04 1194.83 C 1396.94 1159.35 1375.38 1126.23 1354.91 1089.73 C 1346.84 1123.32 1343.16 1160.08 1333.54 1194.2 L 1318.98 1194.23 C 1328.79 1153.03 1335.88 1107.85 1344.76 1065.82 L 1357.47 1065.91 C 1362.22 1073.05 1366.65 1081 1371.15 1088.35 C 1387.81 1115.52 1404.9 1142.85 1420.48 1170.63 C 1427.47 1135.23 1433.55 1100.43 1441.45 1065.07 z" fill="rgb(0,0,0)" transform="translate(0,0)"></path>
<path d="M 1059.51 1064.4 C 1079.44 1064.12 1090.29 1065.75 1105.97 1079.24 C 1103.66 1082.94 1100.96 1086.77 1098.51 1090.41 C 1082.59 1076.47 1055.53 1071.22 1036.74 1084.22 C 1033.47 1086.44 1025.72 1095.63 1026.8 1100.01 C 1031.99 1129 1098.15 1121.25 1097.88 1155.79 C 1097.6 1190.43 1060.45 1195.94 1035.76 1194.69 C 1033.38 1194.34 1031.02 1193.91 1028.68 1193.4 C 1012.64 1189.88 1002.29 1182.19 993.477 1168.56 C 996.233 1166.08 1000.02 1163.51 1003.08 1161.31 C 1017.65 1176.73 1029.36 1182.12 1050.86 1181.34 C 1061.75 1182.5 1084.98 1171.76 1081.67 1157.55 C 1076.65 1135.99 1036.93 1136.11 1021.27 1122.38 C 1005.95 1108.96 1008.59 1096.46 1019.6 1081.44 C 1028.68 1069.06 1045.3 1065.57 1059.51 1064.4 z" fill="rgb(0,0,0)" transform="translate(0,0)"></path>
<path d="M 1678.2 1064.42 C 1696.4 1064.68 1708.03 1067.46 1722.28 1079.62 C 1720.4 1083.41 1717.26 1087.89 1714.88 1091.5 C 1706.38 1081.61 1694.16 1077.8 1681.08 1076.95 C 1669.43 1074.58 1642.61 1085.16 1645.19 1100.37 C 1650.04 1130.51 1716.36 1118.8 1714.65 1157.6 C 1713.16 1191.4 1677.4 1196.08 1652.05 1194.92 C 1633.01 1190.91 1626.27 1187.57 1612.06 1173.55 L 1620.99 1162.29 C 1640.13 1182.54 1671.01 1193.06 1694.88 1170.78 C 1697.62 1168.22 1700.01 1159.76 1698.74 1156.22 C 1691.02 1130.4 1631.95 1138.33 1629.36 1107.14 C 1626.83 1076.61 1654.44 1066.05 1678.2 1064.42 z" fill="rgb(0,0,0)" transform="translate(0,0)"></path>
<path d="M 1192 1064.32 C 1214.14 1061.3 1232.84 1068.8 1247.92 1084.77 C 1243.9 1088.78 1241.2 1091.63 1237.5 1096.01 C 1222.98 1078.95 1207.58 1074.05 1185.72 1078.93 C 1170.06 1082.37 1156.45 1091.99 1148 1105.62 C 1122.27 1146.59 1149.83 1193.63 1201.81 1178.45 C 1211.99 1174.15 1215.88 1171.29 1224.56 1164.47 L 1233.03 1174.88 C 1208.87 1194.86 1172.59 1203.59 1144.79 1184.77 C 1115.86 1165.17 1118.25 1121.15 1137.32 1095.52 C 1151.24 1076.8 1169.2 1067.96 1192 1064.32 z" fill="rgb(0,0,0)" transform="translate(0,0)"></path>
<path d="M 968.698 1065.69 C 973.477 1065.45 979.429 1065.69 984.306 1065.75 C 973.074 1107.35 965.549 1151.71 954.491 1193.71 C 950.805 1194.62 944.087 1194.14 939.983 1194.06 C 945.023 1164.55 953.665 1134.42 959.502 1104.93 C 962.004 1092.29 965.06 1077.95 968.698 1065.69 z" fill="rgb(0,0,0)" transform="translate(0,0)"></path>
<path d="M 1286.6 1065.34 L 1301.93 1064.94 L 1275.24 1193.76 C 1271.94 1194.22 1264.1 1194.1 1260.43 1194.14 C 1262.3 1180.02 1267.25 1158.07 1270.23 1143.91 L 1286.6 1065.34 z" fill="rgb(0,0,0)" transform="translate(0,0)"></path>
<metadata><recraft-signature>{"signed_by": "recraft", "signature_b64": "nelYSp18k7PFm5HIU4A1Pa/14KnlIRyZfVZfdHI8h6E277o3RncHkWKl6qu9RUWH//fJzbL9xigqHwDijOoHCw==", "signing_algo": "Ed25519", "generation_timestamp": 1775980472, "identifier": "d0ef192c-2b20-4712-9614-b0dac2776a9b"}</recraft-signature></metadata></svg>